# xmcd
#
# Track frame offsets:
#	182
#	13925
#	24407
#	42577
#	59082
#	75682
#	96585
#	110555
#	123410
#	141005
#	157357
#	178422
#	192665
#	208887
#
# Disc length: 2965 seconds
#
# Revision: 5
# Processed by: cddbd v1.5.2PL0 Copyright (c) Steve Scherf et al.
# Submitted via: EZCDAudioConverter 1.3.4.1
#
DISCID=e10b930e
DTITLE=Os Mutantes - Everything Is Possible!
DYEAR=1999
DGENRE=
TTITLE0=Ando Meio Desligado
TTITLE1=Ave, Lúcifer
TTITLE2=Dia 36
TTITLE3=Baby (1971)
TTITLE4=Fuga N° II
TTITLE5=Cantor De Mambo
TTITLE6=Adeus Maria Fulô
TTITLE7=Desculpe, Babe
TTITLE8=El Justiciero
TTITLE9=Panis Et Circenses
TTITLE10=A Minha Menina
TTITLE11=Bat Macumba
TTITLE12=Le Premier Bonheur Du Jour
TTITLE13=Baby (1968)
EXTD=
EXTT0=
EXTT1=
EXTT2=
EXTT3=
EXTT4=
EXTT5=
EXTT6=
EXTT7=
EXTT8=
EXTT9=
EXTT10=
EXTT11=
EXTT12=
EXTT13=
PLAYORDER=
